<?xml version="1.0" encoding="UTF-8" standalone="no"?>
<svg
   version="1.1"
   id="svg1"
   width="1254"
   height="1254"
   viewBox="0 0 1254 1254"
   xmlns="http://www.w3.org/2000/svg">
  <rect
     id="bg-rect"
     x="0"
     y="0"
     width="1254"
     height="1254"
     style="fill:#F6E7CB" />
  <path
     style="fill:#5C3A22"
     d="m 6.102364,1176.2338 0.080755,-73.25 1.9120768,11 c 6.5343061,37.5912 28.9219181,75.6597 58.0176821,98.6548 11.136253,8.8013 17.695061,13.0248 30.120733,19.396 13.672679,7.0106 32.111559,13.1746 46.224259,15.4526 l 11.06374,1.7858 -73.750001,0.1054 -73.7500002,0.1054 z m 1117.918536,71.0758 c 22.2399,-3.8851 42.5989,-11.9489 61.5007,-24.3595 20.0745,-13.1805 33.8437,-26.7857 46.7306,-46.1741 15.1772,-22.8341 22.3301,-41.3972 27.0856,-70.2922 0.2263,-1.375 0.4727,30.2375 0.5476,70.25 l 0.1362,72.75 -73.75,-0.083 -73.75,-0.083 z M 338.79433,1062.2865 c -6.05885,-1.6103 -11.71011,-7.3905 -13.32166,-13.6255 -1.32404,-5.1227 -1.19144,-6.2318 3.52709,-29.5 8.89996,-43.88785 42.95461,-218.61903 44.517,-228.41248 0.5466,-3.42622 5.94273,-11.64042 28.24791,-43 53.79869,-75.63737 72.22664,-101.76457 105.27893,-149.26473 20.95134,-30.10963 35.91439,-51.57884 83.98297,-120.5 25.4736,-36.52428 49.62257,-71.55424 82.89807,-120.25011 20.81551,-30.46173 32.69785,-46.99843 33.44227,-46.54174 0.63508,0.38961 27.7047,20.03922 60.1547,43.6658 52.13771,37.96104 121.27591,88.03562 134.75,97.5951 2.6125,1.8535 4.75,3.79163 4.75,4.30696 0,0.51533 -7.79361,12.02654 -17.31913,25.58048 -28.49577,40.54683 -76.87198,109.64403 -99.16722,141.64351 -11.49616,16.5 -36.42682,52.05 -55.40146,79 -33.53842,47.6352 -63.44821,90.15627 -90.74001,129 -7.34222,10.45 -25.8421,36.70986 -41.11084,58.35525 l -27.76134,39.35525 -35,20.69915 c -65.86326,38.95182 -107.01539,63.37146 -146.48832,86.92606 -21.71857,12.9601 -41.06857,24.1292 -43,24.8202 -4.11585,1.4725 -7.11558,1.5084 -12.23896,0.1468 z M 458.6684,963.34671 c 75.05133,-44.64317 85.91785,-51.16725 87.4511,-52.50423 1.45807,-1.27142 1.30744,-3.36174 -1.72133,-23.88819 -1.82557,-12.37216 -3.7408,-23.27686 -4.25607,-24.23267 -1.78837,-3.31739 -5.85242,-6.32007 -9.31443,-6.88187 -2.31207,-0.3752 -11.08652,1.14897 -26.13386,4.5396 -12.45923,2.80744 -24.05192,5.10444 -25.76154,5.10444 -4.47852,0 -9.85649,-2.86259 -12.00005,-6.38739 -2.02268,-3.32602 -1.9472,-2.87607 -4.96734,-29.61261 -1.14936,-10.175 -2.53682,-19.94777 -3.08326,-21.71727 -1.40337,-4.5445 -6.17981,-8.28273 -10.58306,-8.28273 -3.36858,0 -36.62517,6.03749 -44.35858,8.05297 l -3.58162,0.93344 -2.14004,10.2568 c -1.17703,5.64124 -7.12931,35.68179 -13.22729,66.75679 -6.09798,31.075 -11.31032,57.26946 -11.58299,58.2099 -0.37953,1.30904 1.21674,2.56953 6.80891,5.37665 14.79074,7.42457 33.35264,21.18757 41.00554,30.40417 1.81451,2.18528 3.36517,3.98134 3.44591,3.99126 0.0807,0.01 15.38073,-9.04366 34,-20.11906 z M 907.02161,412.26882 c -10.725,-7.76227 -54.6,-39.60852 -97.5,-70.76945 -42.9,-31.16092 -79.21632,-57.44996 -80.70294,-58.42007 l -2.70293,-1.76385 17.79648,-26.66583 c 19.35209,-28.99671 24.42772,-35.21781 35.58347,-43.61386 36.68388,-27.60909 89.20466,-28.77772 133.19311,-2.96366 38.03704,22.32155 63.4315,56.62445 69.37329,93.70963 1.65528,10.33132 0.71781,28.79254 -1.99071,39.20206 -3.88213,14.92001 -6.44435,19.23182 -42.61865,71.72039 -4.98789,7.23738 -9.48789,13.27564 -10,13.41836 -0.51212,0.14273 -9.70612,-6.09145 -20.43112,-13.85372 z M 6.0795708,68.233793 6.0216088,-4.5162067 l 73.7500002,0.093396 73.750001,0.093396 -10.5,1.7901575 C 124.74392,0.57692843 104.30248,7.65311 91.113159,15.429813 c -2.848759,1.679689 -5.416622,3.05398 -5.706362,3.05398 -0.887161,0 -13.480828,9.085913 -20.903596,15.081252 -8.034104,6.489112 -17.49479,16.337708 -23.706854,24.678889 -2.351106,3.156923 -4.612238,5.889859 -5.024738,6.073193 -0.4125,0.183333 -0.75,0.775858 -0.75,1.316721 0,0.540864 -1.07999,2.415864 -2.399977,4.166667 C 23.102528,82.426454 13.512748,105.75637 9.0189265,127.22093 L 6.1375327,140.98379 Z M 1259.0216,138.29399 c 0,-5.92808 -4.9161,-25.52896 -9.2325,-36.8102 -5.5257,-14.442282 -16.2897,-33.071349 -26.4451,-45.768271 -15.09,-18.866587 -37.3997,-36.075854 -59.3224,-45.7602614 -16.4482,-7.2660402 -24.8367,-9.84313438 -40.5,-12.4423784 l -11,-1.8253922 73.75,-0.1018468 73.75,-0.1018469 V 67.983793 c 0,39.874997 -0.225,72.499997 -0.5,72.499997 -0.275,0 -0.5,-0.98541 -0.5,-2.1898 z"
     id="path1" />
</svg>
