<?xml version="1.0" encoding="UTF-8" standalone="no"?>
<svg
   version="1.1"
   id="svg1"
   width="1254"
   height="1254"
   viewBox="0 0 1254 1254"
   xmlns="http://www.w3.org/2000/svg">
  <rect
     id="bg-rect"
     x="0"
     y="0"
     width="1254"
     height="1254"
     style="fill:#F6E7CB" />
  <path
     transform="translate(-3.3847029,46.2263009)"
     style="fill:#5C3A22"
     d="m 644.04323,988.22966 c -29.98421,-2.5499 -47.1927,-4.8841 -70,-9.4949 -45.02298,-9.10201 -84.83312,-22.76585 -121,-41.53004 -6.875,-3.56691 -16.55,-8.07753 -21.5,-10.02361 -14.25374,-5.60382 -44.00753,-20.57184 -55.70599,-28.02361 -45.95398,-29.2721 -82.57753,-71.95744 -95.66935,-111.50417 -6.89277,-20.82114 -8.25369,-35.2051 -4.09505,-43.28166 7.49925,-14.56439 27.54418,-9.93235 30.96758,7.15608 4.63931,23.15782 12.02008,40.08353 26.08134,59.81018 28.54852,40.05092 77.44136,72.76764 138.0207,92.35678 21.48527,6.94755 26.12948,8.04565 36.90077,8.725 12.48946,0.78771 42.86644,-0.91167 66.5,-3.72021 32.2039,-3.82703 31.60446,-3.58169 15.5,-6.34376 -18.5118,-3.17495 -49.74648,-10.55973 -68,-16.07717 -88.83386,-26.85151 -156.02846,-70.65528 -192.92361,-125.76578 -8.02708,-11.99008 -16.61594,-29.93868 -20.42102,-42.67486 -6.47394,-21.66925 -6.87445,-40.78688 -1.22706,-58.57063 8.19417,-25.80361 30.38312,-41.83906 41.50815,-29.997 5.01063,5.33357 4.58772,13.40607 -1.32197,25.23349 -9.18637,18.38527 -9.74383,34.09994 -2.03308,57.31188 10.36643,31.20642 38.23716,63.60999 77.41975,90.01114 20.67936,13.93372 45.55502,26.87906 72.1021,37.52206 59.64986,23.91427 136.48312,38.4784 203.03666,38.48663 15.74028,0.002 21.56992,-0.39468 29.36008,-1.99757 15.62007,-3.21396 20.27544,-2.4366 26.26562,4.38584 2.63531,3.00146 3.23438,4.52909 3.23438,8.24783 0,6.01922 -2.48348,11.00777 -6.90629,13.8726 -6.67996,4.32687 -64.46389,20.7577 -98.09371,27.89289 -25.73926,5.46105 -62.37055,11.19392 -74.5,11.65942 l -2,0.077 2,0.8924 c 2.40105,1.0714 28.74732,5.2561 47.5,7.5446 18.01785,2.1989 71.84756,3.075 91.74027,1.4932 97.00368,-7.7137 196.52372,-40.94785 256.06911,-85.51283 19.14388,-14.32765 31.44179,-26.66841 45.39449,-45.55275 10.6563,-14.42262 30.1862,-10.39926 31.5882,6.50747 0.4071,4.90877 0.029,6.46843 -3.1025,12.79147 -4.6781,9.44649 -18.4016,26.44915 -29.9536,37.11065 -60.58868,55.91797 -166.25659,96.49283 -284.23597,109.14224 -14.14071,1.5161 -76.95228,2.822 -88.5,1.8399 z m 152.96189,-82.64173 c -8.70557,-4.38996 -11.13363,-14.3588 -5.55173,-22.79362 3.19425,-4.82683 5.55176,-6.06608 17.98217,-9.4525 28.72431,-7.82536 70.24286,-23.88136 98.65597,-38.1521 32.02093,-16.08279 53.26288,-30.73041 71.05225,-48.99484 19.24691,-19.76095 30.26492,-38.7151 36.14762,-62.18488 1.8607,-7.42326 2.1794,-11.5521 2.2128,-28.67206 0.043,-22.29942 0.632,-24.75596 6.8376,-28.54131 6.6242,-4.04076 13.6225,-3.42023 19.7706,1.75304 6.8824,5.7912 9.4373,15.50564 9.4121,35.78827 -0.015,11.94401 -0.4883,17.11485 -2.3242,25.3805 -12.3372,55.5469 -51.0776,98.85931 -119.67473,133.79833 -34.05259,17.34422 -73.05642,31.74256 -113.16357,41.77454 -12.49431,3.1252 -15.66044,3.16918 -21.35688,0.29663 z m -119.99193,-65 c -11.58588,-5.85301 -12.28366,-21.06677 -1.2782,-27.86852 3.11416,-1.92466 5.66341,-2.32525 19.1996,-3.01709 71.74278,-3.66676 139.87434,-19.77798 186.09922,-44.00728 13.35639,-7.00091 29.27422,-17.19697 36.72486,-23.52388 5.8942,-5.00522 5.87035,-4.80418 2.11137,-17.79799 -4.1842,-14.46364 -11.93358,-26.58953 -24.95357,-39.04623 -10.59724,-10.13877 -19.70854,-16.11658 -37.56065,-24.64307 -13.00975,-6.2137 -14.40011,-7.13913 -16.75,-11.14891 -6.80238,-11.60739 0.70626,-24.69703 14.16701,-24.69703 6.28858,0 13.89253,2.59149 27.7704,9.46438 32.4182,16.05485 55.5347,39.37102 66.95724,67.53562 l 1.82504,4.5 3.4206,-7.33144 c 12.75188,-27.33136 8.84251,-53.33207 -11.27464,-74.98625 -8.81039,-9.48353 -15.82933,-14.67123 -31.9932,-23.64617 -6.56428,-3.6448 -12.95303,-7.84398 -14.19724,-9.33152 -10.22837,-12.22877 1.86782,-30.17587 17.66605,-26.21111 2.52788,0.6344 8.33242,2.90234 12.89898,5.03986 27.78197,13.00424 53.34198,37.94806 63.23383,61.70945 13.86811,33.31257 9.24301,67.91133 -13.72876,102.7013 -8.28075,12.5409 -29.59512,34.08087 -43.3079,43.76629 -52.84753,37.32654 -123.84722,58.11852 -217.71135,63.75589 -27.28921,1.63896 -34.08277,1.42881 -39.31869,-1.2163 z m -90.93595,-9.50155 c -4.40357,-2.22143 -7.3514,-7.28975 -7.33373,-12.6092 0.0124,-3.72974 6.44255,-34.46274 29.73934,-142.13925 4.16491,-19.25 8.36849,-38.375 9.34127,-42.5 1.58619,-6.72604 3.63619,-10.44104 19.86552,-36 44.13523,-69.50695 73.56058,-116.06486 113.13089,-179 23.34225,-37.125 52.56074,-83.59684 64.92997,-103.27075 l 22.48951,-35.77075 3.65161,2.2394 c 2.00838,1.23167 17.60161,11.29302 34.65161,22.35855 17.05,11.06553 45.85,29.70563 64,41.42244 18.15,11.71682 34.46624,22.29637 36.25832,23.51012 l 3.25833,2.20683 -30.09993,46.40208 c -16.55497,25.52114 -32.02789,49.32708 -34.38428,52.90208 -2.35639,3.575 -17.53886,26.975 -33.73883,52 -16.19996,25.025 -34.8542,53.825 -41.45385,64 -12.30337,18.9687 -73.34313,113.48129 -80.6063,124.80897 -3.34095,5.21058 -6.06378,7.74854 -15.63935,14.57751 -20.54145,14.64947 -83.76948,60.56963 -113.06651,82.11599 -15.65982,11.51695 -30.04247,21.74036 -31.96144,22.71871 -4.40995,2.24832 -8.61188,2.25711 -13.03215,0.0273 z m 96.60855,-87.0359 c 49.10404,-35.6881 52.40024,-38.16051 53.01664,-39.76684 0.70368,-1.83376 -3.51887,-27.05926 -5.22299,-31.20207 -2.39264,-5.81665 -4.73279,-5.89653 -22.95359,-0.78344 -8.89781,2.49689 -17.36432,4.5398 -18.81446,4.5398 -1.48763,0 -3.93447,-1.19839 -5.61488,-2.75 -2.86062,-2.64137 -3.06004,-3.40177 -5.0485,-19.25 -2.48449,-19.80167 -2.44555,-19.65945 -5.86665,-21.42857 -2.45474,-1.26939 -4.17957,-1.06275 -17.67913,2.11811 -8.22745,1.9386 -15.46553,4.03902 -16.08461,4.6676 -0.61908,0.62857 -2.95586,9.69286 -5.19283,20.14286 -2.23697,10.45 -7.20969,33.4 -11.05049,51 -3.84081,17.6 -7.27637,33.60624 -7.63459,35.56941 -0.64766,3.54939 -0.61581,3.58818 5.6761,6.91412 7.34015,3.88004 15.82973,9.54184 20.82742,13.89004 1.925,1.67483 3.78915,3.06344 4.14256,3.08579 0.35341,0.0224 17.22841,-12.01371 37.5,-26.74681 z m -159.14256,68.31873 c -61.70478,-17.23592 -112.38141,-44.04033 -143.05356,-75.66539 -15.02555,-15.49236 -22.12818,-27.02636 -25.82032,-41.92978 -5.63412,-22.74225 4.60193,-49.33172 28.759,-74.7052 l 5.96855,-6.26909 -3.2634,-20.16777 c -3.72997,-23.05109 -6.58184,-33.78043 -12.12037,-45.59935 -5.70702,-12.17846 -12.12348,-21.25399 -21.77183,-30.79437 l -8.555,-8.45926 -6.07154,0.77946 c -3.33934,0.42871 -12.59653,0.71416 -20.57153,0.63434 -17.97649,-0.17993 -29.53142,-2.85624 -44.7233,-10.35865 -23.6782,-11.69332 -38.64988,-28.80962 -55.16627,-63.06856 -8.66683,-17.9771 -11.0159,-24.4222 -9.46608,-25.97202 2.9898,-2.9898 35.78055,-6.45456 53.35565,-5.6377 15.52699,0.72167 26.26701,3.33315 39.5,9.6046 27.20253,12.89198 44.55876,36.44989 51.99775,70.57746 1.46483,6.72014 2.24442,8.39474 4.87302,10.46741 1.72108,1.35707 5.94173,5.1409 9.37923,8.40851 5.18857,4.93213 6.25,5.57896 6.25,3.80871 0,-1.17281 -1.32879,-10.35663 -2.95285,-20.4085 -2.68464,-16.61611 -8.3035,-53.09282 -14.21767,-92.29877 l -2.26615,-15.02264 -6.73832,-4.28149 c -30.41621,-19.32627 -49.82501,-56.49043 -49.82501,-95.40542 0,-27.23628 7.80661,-54.42731 25.91611,-90.26781 7.15759,-14.1656 8.98857,-17.05645 10.98174,-17.33854 1.93421,-0.27376 4.58228,1.92704 13.83717,11.5 28.85896,29.85077 42.69282,50.36299 51.15376,75.84849 5.18189,15.60858 6.48393,25.13191 5.85193,42.80193 -0.62576,17.49525 -3.55878,29.73485 -10.58897,44.18812 -4.50646,9.26476 -14.56877,24.17213 -18.4761,27.37244 -0.9216,0.75485 -1.67564,2.43266 -1.67564,3.72848 0,2.74122 8.33931,56.73891 13.79991,89.35551 l 3.75961,22.45642 2.78738,-6.45642 c 1.53306,-3.55104 4.72319,-9.60643 7.08918,-13.45643 3.8573,-6.2767 4.36917,-7.84951 4.95387,-15.2214 1.31933,-16.63424 8.20516,-36.43352 17.35342,-49.89743 20.40369,-30.02903 56.18769,-45.8036 102.6803,-45.26429 16.32224,0.18934 23.00067,1.0861 23.39158,3.14097 0.44333,2.33035 -8.9292,29.67579 -14.42444,42.08495 -17.35232,39.18445 -45.77636,63.26456 -82.81975,70.16276 -6.2404,1.16208 -24.1704,2.49444 -33.5686,2.49444 -1.80483,0 -10.98954,20.49772 -13.67711,30.52348 -2.41001,8.99037 -2.67687,11.70634 -2.69968,27.47652 -0.0232,16.05322 0.28026,19.11212 3.67085,37 2.0329,10.725 3.92801,20.49904 4.21137,21.72008 0.49215,2.1208 0.90096,1.97123 9.1407,-3.3443 28.73675,-18.53833 67.18119,-33.59083 104.25362,-40.81937 22.49954,-4.38706 37.175,-5.8362 60.25359,-5.94981 l 21.65581,-0.1066 4.32471,3.03386 c 8.58072,6.01953 10.00684,15.98127 3.3437,23.35657 -4.47734,4.95588 -8.76402,6.10957 -22.70083,6.10957 -77.97907,0 -158.25786,32.06334 -189.41833,75.65367 -5.29764,7.41086 -10.06632,17.61755 -10.98982,23.52215 l -0.67631,4.32418 4.91152,-4.56454 c 32.72583,-30.41387 95.40057,-56.24484 153.99259,-63.46701 16.58347,-2.04411 29.19474,-2.25975 32.40116,-0.55402 10.14498,5.39688 12.76306,16.73008 5.71832,24.7536 -4.56778,5.20242 -7.70065,6.33249 -20.50724,7.39729 -35.12368,2.92034 -72.96172,13.47462 -104.13667,29.04715 -24.6234,12.29989 -41.58718,24.72589 -49.56098,36.3035 l -3.97849,5.77659 4.48253,3.93437 c 28.22888,24.77683 76.76668,49.47606 123.7858,62.99037 15.5067,4.45696 20.19673,8.74485 20.19673,18.46501 0,9.07064 -7.03546,15.418 -17,15.33734 -2.475,-0.02 -9.9,-1.5448 -16.5,-3.38837 z m 451,-488.63612 c -13.75,-8.85004 -33.775,-21.8442 -44.5,-28.8759 -10.725,-7.03171 -30.30501,-19.70015 -43.51112,-28.15209 -13.20611,-8.45194 -25.05837,-16.11239 -26.33835,-17.02321 l -2.32724,-1.65603 15.82235,-24.84397 c 8.70229,-13.66418 17.35005,-26.5377 19.21725,-28.60783 5.3997,-5.98657 17.35668,-13.39234 26.4226,-16.36531 7.18843,-2.35729 9.90079,-2.70483 21.71451,-2.7823 12.32071,-0.0808 14.27105,0.16411 22.32673,2.80353 15.3032,5.01404 35.42823,18.42374 51.18864,34.10795 8.871,8.82804 10.6643,11.23055 15.3019,20.5 6.4874,12.96693 8.5526,21.97128 7.9128,34.5 -0.7814,15.30361 -3.8432,22.27759 -21.6222,49.25 -8.429,12.7875 -15.614,23.24688 -15.9666,23.24307 -0.35271,-0.004 -11.89131,-7.24787 -25.64127,-16.09791 z"
     id="path1" />
</svg>
